<?xml version="1.0" encoding="UTF-8" standalone="no"?>
<svg
   xmlns:dc="http://purl.org/dc/elements/1.1/"
   xmlns:cc="http://creativecommons.org/ns#"
   xmlns:rdf="http://www.w3.org/1999/02/22-rdf-syntax-ns#"
   xmlns:svg="http://www.w3.org/2000/svg"
   xmlns="http://www.w3.org/2000/svg"
   xmlns:sodipodi="http://sodipodi.sourceforge.net/DTD/sodipodi-0.dtd"
   xmlns:inkscape="http://www.inkscape.org/namespaces/inkscape"
   width="49.495239mm"
   height="73.144714mm"
   viewBox="0 0 49.495239 73.144714"
   version="1.1"
   id="svg8"
   inkscape:version="1.0.2 (e86c870879, 2021-01-15)"
   sodipodi:docname="background_dark.svg">
  <defs
     id="defs2" />
  <sodipodi:namedview
     id="base"
     pagecolor="#ffffff"
     bordercolor="#666666"
     borderopacity="1.0"
     inkscape:pageopacity="0.0"
     inkscape:pageshadow="2"
     inkscape:zoom="0.7"
     inkscape:cx="133.23316"
     inkscape:cy="234.01676"
     inkscape:document-units="mm"
     inkscape:current-layer="layer1"
     inkscape:document-rotation="0"
     showgrid="false"
     inkscape:window-width="1920"
     inkscape:window-height="1039"
     inkscape:window-x="0"
     inkscape:window-y="0"
     inkscape:window-maximized="1" />
  <metadata
     id="metadata5">
    <rdf:RDF>
      <cc:Work
         rdf:about="">
        <dc:format>image/svg+xml</dc:format>
        <dc:type
           rdf:resource="http://purl.org/dc/dcmitype/StillImage" />
        <dc:title></dc:title>
      </cc:Work>
    </rdf:RDF>
  </metadata>
  <g
     inkscape:label="Ebene 1"
     inkscape:groupmode="layer"
     id="layer1"
     transform="translate(-49.469976,-19.888774)">
    <g
       aria-label="δ"
       id="text835"
       style="font-style:normal;font-weight:normal;font-size:10.5833px;line-height:1.25;font-family:sans-serif;fill:#ffffff;fill-opacity:1;stroke:none;stroke-width:0.264583">
      <path
         d="m 82.451381,69.673084 q 0,-2.79053 -0.654569,-5.236549 -0.620118,-2.44602 -1.722549,-4.58198 -1.06798,-2.170412 -2.48047,-4.065216 -1.41249,-1.894803 -2.962784,-3.651803 v 0.0689 q -2.377118,0.964627 -4.065216,2.411568 -1.653647,1.446941 -2.756078,3.272843 -1.06798,1.791451 -1.584745,3.927412 -0.482314,2.101509 -0.482314,4.409725 0,2.446019 0.792373,4.823137 0.826823,2.342666 2.204862,4.203019 1.41249,1.860353 3.238392,2.997235 1.825902,1.136882 3.85851,1.136882 1.240235,0 2.411568,-0.72347 1.205785,-0.723471 2.135961,-1.998157 0.930176,-1.309137 1.481392,-3.100588 0.585667,-1.791451 0.585667,-3.89296 z m 5.581058,-38.240586 q -2.514921,2.446019 -3.858509,3.720706 -1.343589,1.274686 -2.032608,1.274686 -0.620118,0 -2.067059,-0.620118 -1.41249,-0.654568 -3.203941,-1.41249 -1.791451,-0.792372 -3.686254,-1.41249 -1.860353,-0.654569 -3.410647,-0.654569 -0.757922,0 -1.240236,0.447863 -0.447862,0.447863 -0.447862,1.584745 0,1.550294 0.861274,3.100588 0.861275,1.550294 2.239314,3.16949 1.41249,1.619196 3.16949,3.376196 1.791451,1.722549 3.651803,3.617353 1.894804,1.894803 3.651804,4.030764 1.791451,2.135961 3.16949,4.58198 1.41249,2.411569 2.273765,5.167647 0.861274,2.721627 0.861274,5.891117 0,3.066137 -1.240235,5.99447 -1.205784,2.928333 -3.203941,5.271 -1.998157,2.308215 -4.513078,3.720706 -2.480471,1.41249 -5.029843,1.41249 -3.238392,0 -5.787764,-1.309138 -2.514922,-1.343588 -4.237471,-3.513999 -1.722548,-2.204863 -2.652725,-4.995392 -0.895725,-2.790529 -0.895725,-5.753313 0,-3.16949 0.861274,-5.96002 0.861275,-2.790529 2.44602,-5.098744 1.619196,-2.308216 3.858509,-4.099667 2.273765,-1.791451 5.064294,-2.997235 -1.653647,-1.791451 -3.238392,-3.514 -1.550294,-1.722549 -2.756078,-3.445097 -1.205785,-1.722549 -1.963706,-3.514 -0.723471,-1.825902 -0.723471,-3.824059 0,-1.343588 0.516765,-2.514921 0.516765,-1.171333 1.41249,-2.032608 0.895726,-0.895725 2.135961,-1.378039 1.240235,-0.516765 2.652725,-0.516765 2.342667,0 4.340823,0.206706 2.032608,0.206706 3.789608,0.482314 1.791451,0.241157 3.376196,0.447863 1.584745,0.206705 3.100588,0.206705 1.06798,0 1.860353,-0.37896 0.241156,0.172255 0.37896,0.482313 0.172255,0.275608 0.516765,0.757922 z"
         style="font-style:normal;font-variant:normal;font-weight:normal;font-stretch:normal;font-size:70.5556px;font-family:'Gentium Plus';-inkscape-font-specification:'Gentium Plus, Normal';font-variant-ligatures:normal;font-variant-caps:normal;font-variant-numeric:normal;font-variant-east-asian:normal;fill:#ffffff;stroke-width:0.264583"
         id="path832" />
    </g>
  </g>
</svg>
