<?xml version="1.0" encoding="UTF-8" standalone="no"?>
<svg
   xmlns:dc="http://purl.org/dc/elements/1.1/"
   xmlns:cc="http://creativecommons.org/ns#"
   xmlns:rdf="http://www.w3.org/1999/02/22-rdf-syntax-ns#"
   xmlns:svg="http://www.w3.org/2000/svg"
   xmlns="http://www.w3.org/2000/svg"
   xmlns:sodipodi="http://sodipodi.sourceforge.net/DTD/sodipodi-0.dtd"
   xmlns:inkscape="http://www.inkscape.org/namespaces/inkscape"
   width="67.733322mm"
   height="67.73333mm"
   viewBox="0 0 67.733322 67.73333"
   version="1.1"
   id="svg8"
   inkscape:version="1.0.2 (e86c870879, 2021-01-15)"
   sodipodi:docname="deltatouch2path.svg">
  <defs
     id="defs2">
    <rect
       x="54.476673"
       y="43.626076"
       width="39.635326"
       height="50.485023"
       id="rect892" />
    <rect
       x="76.83802"
       y="112.6326"
       width="0.5767228"
       height="36.333282"
       id="rect886" />
    <rect
       x="52.570019"
       y="91.810562"
       width="47.845295"
       height="44.963444"
       id="rect880" />
  </defs>
  <sodipodi:namedview
     id="base"
     pagecolor="#ffffff"
     bordercolor="#666666"
     borderopacity="1.0"
     inkscape:pageopacity="0.0"
     inkscape:pageshadow="2"
     inkscape:zoom="1.4"
     inkscape:cx="197.5902"
     inkscape:cy="152.24957"
     inkscape:document-units="mm"
     inkscape:current-layer="layer2"
     inkscape:document-rotation="0"
     showgrid="false"
     inkscape:window-width="1920"
     inkscape:window-height="1039"
     inkscape:window-x="0"
     inkscape:window-y="0"
     inkscape:window-maximized="1" />
  <metadata
     id="metadata5">
    <rdf:RDF>
      <cc:Work
         rdf:about="">
        <dc:format>image/svg+xml</dc:format>
        <dc:type
           rdf:resource="http://purl.org/dc/dcmitype/StillImage" />
        <dc:title></dc:title>
      </cc:Work>
    </rdf:RDF>
  </metadata>
  <g
     inkscape:label="Ebene 1"
     inkscape:groupmode="layer"
     id="layer1"
     transform="translate(-43.828594,-36.294151)">
    <rect
       style="opacity:1;fill:#d7eef4;stroke-width:0.264583"
       id="rect47"
       width="67.733322"
       height="67.73333"
       x="43.828594"
       y="36.294151"
       inkscape:label="rect47" />
  </g>
  <g
     inkscape:groupmode="layer"
     id="layer2"
     inkscape:label="Ebene 2"
     transform="translate(-43.828594,-36.294151)">
    <path
       style="color:#000000;font-style:normal;font-variant:normal;font-weight:normal;font-stretch:normal;font-size:medium;line-height:normal;font-family:sans-serif;font-variant-ligatures:normal;font-variant-position:normal;font-variant-caps:normal;font-variant-numeric:normal;font-variant-alternates:normal;font-variant-east-asian:normal;font-feature-settings:normal;font-variation-settings:normal;text-indent:0;text-align:start;text-decoration:none;text-decoration-line:none;text-decoration-style:solid;text-decoration-color:#000000;letter-spacing:normal;word-spacing:normal;text-transform:none;writing-mode:lr-tb;direction:ltr;text-orientation:mixed;dominant-baseline:auto;baseline-shift:baseline;text-anchor:start;white-space:normal;shape-padding:0;shape-margin:0;inline-size:0;clip-rule:nonzero;display:inline;overflow:visible;visibility:visible;opacity:0.4;isolation:auto;mix-blend-mode:normal;color-interpolation:sRGB;color-interpolation-filters:linearRGB;solid-color:#000000;solid-opacity:1;vector-effect:none;fill:#afe9dd;fill-opacity:1;fill-rule:nonzero;stroke:none;stroke-width:0.264583;stroke-linecap:butt;stroke-linejoin:miter;stroke-miterlimit:4;stroke-dasharray:none;stroke-dashoffset:0;stroke-opacity:1;color-rendering:auto;image-rendering:auto;shape-rendering:auto;text-rendering:auto;enable-background:accumulate;stop-color:#000000;stop-opacity:1"
       d="M 111.56192,36.294151 V 72.541772 104.02748 L 78.257775,71.751632 43.828594,36.294151 m 0,0 h 67.733326"
       id="rect40"
       sodipodi:nodetypes="ccccccc" />
    <g
       aria-label="δ"
       transform="matrix(1.7467317,0,0,1.7467317,-32.999245,-37.741594)"
       id="text890"
       style="font-style:normal;font-variant:normal;font-weight:normal;font-stretch:normal;font-size:35.2778px;line-height:1.25;font-family:GentiumAlt;-inkscape-font-specification:'GentiumAlt, Normal';font-variant-ligatures:normal;font-variant-caps:normal;font-variant-numeric:normal;font-variant-east-asian:normal;white-space:pre;shape-inside:url(#rect892);display:inline;fill:#0b2228;fill-opacity:1;stroke:none">
      <path
         d="m 67.188973,68.492197 q 0,-1.395265 -0.327284,-2.601049 -0.310059,-1.22301 -0.844049,-2.29099 -0.53399,-1.085206 -1.240235,-2.032608 -0.706245,-0.947402 -1.464167,-1.825901 v 0.01722 q -1.188558,0.482314 -2.032607,1.205784 -0.844049,0.723471 -1.395265,1.636422 -0.53399,0.895725 -0.792372,1.963705 -0.241157,1.050755 -0.241157,2.204863 0,1.22301 0.413411,2.411569 0.413412,1.188558 1.102432,2.118735 0.706245,0.930176 1.619196,1.515843 0.912951,0.568441 1.929254,0.568441 0.620118,0 1.205785,-0.361735 0.602892,-0.378961 1.050755,-1.03353 0.465088,-0.654568 0.740696,-1.550294 0.275607,-0.895725 0.275607,-1.94648 z m 2.824981,-19.120293 q -1.257461,1.22301 -1.929255,1.860353 -0.671794,0.637343 -1.016304,0.637343 -0.310059,0 -1.033529,-0.310059 -0.706245,-0.327284 -1.601971,-0.706245 -0.895725,-0.396186 -1.843127,-0.706245 -0.930177,-0.327284 -1.705324,-0.327284 -0.37896,0 -0.602892,0.223931 -0.223931,0.223932 -0.223931,0.792373 0,1.033529 0.72347,2.084284 0.740697,1.033529 1.843128,2.170412 1.102431,1.119656 2.377117,2.377117 1.291912,1.257461 2.394343,2.756078 1.102432,1.481392 1.825902,3.238392 0.740696,1.739775 0.740696,3.841284 0,1.016304 -0.292833,2.032608 -0.275608,0.999078 -0.775147,1.912029 -0.482314,0.912951 -1.154108,1.688098 -0.654569,0.775147 -1.429716,1.360814 -0.775147,0.568441 -1.636421,0.895725 -0.844049,0.327284 -1.688098,0.327284 -1.619196,0 -2.893882,-0.654568 -1.257461,-0.671794 -2.118735,-1.774225 -0.861275,-1.102432 -1.326363,-2.497696 -0.447863,-1.395265 -0.447863,-2.876657 0,-1.584745 0.430638,-2.962784 0.430637,-1.395265 1.223009,-2.549373 0.809598,-1.171333 1.929255,-2.067058 1.136882,-0.895726 2.532147,-1.498618 -0.826823,-0.895725 -1.619196,-1.757 -0.775147,-0.861274 -1.395265,-1.722549 -0.602892,-0.861274 -0.964627,-1.756999 -0.361735,-0.912951 -0.361735,-1.91203 0,-0.671794 0.258382,-1.25746 0.258382,-0.585667 0.706245,-1.016304 0.447863,-0.447863 1.06798,-0.68902 0.620118,-0.258382 1.326363,-0.258382 1.171333,0 2.170412,0.103353 1.016304,0.103353 1.894804,0.241157 0.895725,0.120578 1.688097,0.223931 0.792373,0.103353 1.550294,0.103353 0.533991,0 0.930177,-0.18948 0.120578,0.08613 0.18948,0.241156 0.08613,0.137804 0.258383,0.378961 z"
         style="font-style:normal;font-variant:normal;font-weight:normal;font-stretch:normal;font-size:35.2778px;font-family:GentiumAlt;-inkscape-font-specification:'GentiumAlt, Normal';font-variant-ligatures:normal;font-variant-caps:normal;font-variant-numeric:normal;font-variant-east-asian:normal;fill:#0b2228"
         id="path841" />
    </g>
  </g>
</svg>
