<?xml version="1.0" encoding="UTF-8" standalone="no"?>
<svg
   xmlns:dc="http://purl.org/dc/elements/1.1/"
   xmlns:cc="http://creativecommons.org/ns#"
   xmlns:rdf="http://www.w3.org/1999/02/22-rdf-syntax-ns#"
   xmlns:svg="http://www.w3.org/2000/svg"
   xmlns="http://www.w3.org/2000/svg"
   xmlns:sodipodi="http://sodipodi.sourceforge.net/DTD/sodipodi-0.dtd"
   xmlns:inkscape="http://www.inkscape.org/namespaces/inkscape"
   width="188.33409mm"
   height="107.23949mm"
   viewBox="0 0 188.33408 107.23949"
   version="1.1"
   id="svg8"
   inkscape:version="1.0.2 (e86c870879, 2021-01-15)"
   sodipodi:docname="read_white.svg">
  <defs
     id="defs2" />
  <sodipodi:namedview
     id="base"
     pagecolor="#ffffff"
     bordercolor="#666666"
     borderopacity="1.0"
     inkscape:pageopacity="0.0"
     inkscape:pageshadow="2"
     inkscape:zoom="1.4"
     inkscape:cx="335.4902"
     inkscape:cy="246.83866"
     inkscape:document-units="mm"
     inkscape:current-layer="layer1"
     inkscape:document-rotation="0"
     showgrid="false"
     inkscape:window-width="1920"
     inkscape:window-height="1039"
     inkscape:window-x="0"
     inkscape:window-y="0"
     inkscape:window-maximized="1" />
  <metadata
     id="metadata5">
    <rdf:RDF>
      <cc:Work
         rdf:about="">
        <dc:format>image/svg+xml</dc:format>
        <dc:type
           rdf:resource="http://purl.org/dc/dcmitype/StillImage" />
        <dc:title></dc:title>
      </cc:Work>
    </rdf:RDF>
  </metadata>
  <g
     inkscape:label="Ebene 1"
     inkscape:groupmode="layer"
     id="layer1"
     transform="translate(-35.250547,-67.738223)">
    <path
       style="fill:#ffffff;stroke-width:6.94623"
       d="M 46.505139,346.67713 2.0572219,286.97001 14.013444,277.82171 c 10.372562,-7.93656 12.095516,-9.01531 13.007858,-8.14431 0.578401,0.55219 16.201279,20.68891 34.717507,44.74827 18.516228,24.05935 34.024435,43.74428 34.462678,43.74428 0.438236,0 19.851083,-17.21804 43.139633,-38.26231 C 289.95849,183.80507 486.20743,6.5967984 487.17205,5.8243198 c 0.99704,-0.7984336 2.23021,0.3939458 9.53354,9.2181562 4.61361,5.574365 8.4247,10.550058 8.46908,11.057093 0.0735,0.839411 -412.809354,380.284661 -413.796219,380.284661 -0.233964,0 -20.426958,-26.8682 -44.873312,-59.7071 z"
       id="path835"
       transform="matrix(0.26458333,0,0,0.26458333,34.70624,66.252059)" />
    <path
       style="fill:#ffffff;stroke-width:1.83786"
       d="m 102.22831,159.18021 -11.760174,-15.79751 3.163417,-2.42049 c 2.744407,-2.09988 3.200272,-2.3853 3.441662,-2.15485 0.153035,0.1461 4.286585,5.47394 9.185675,11.83965 4.89908,6.3657 9.0023,11.57401 9.11825,11.57401 0.11595,0 5.25226,-4.55561 11.41403,-10.12357 39.85084,-36.01048 91.77504,-82.896829 92.03026,-83.101214 0.2638,-0.211252 0.59008,0.104231 2.52242,2.43897 1.22068,1.474884 2.22903,2.79137 2.24078,2.925523 0.0195,0.222094 -109.22248,100.616981 -109.48359,100.616981 -0.0619,0 -5.40463,-7.10887 -11.87273,-15.7975 z"
       id="path835-8" />
  </g>
</svg>
