<?xml version="1.0" encoding="UTF-8" standalone="no"?>
<!-- Created with Inkscape (http://www.inkscape.org/) -->

<svg
   width="96"
   height="96"
   id="svg4874"
   version="1.1"
   inkscape:version="1.2.2 (b0a8486541, 2022-12-01)"
   viewBox="0 0 96 96.000001"
   sodipodi:docname="shield.svg"
   xmlns:inkscape="http://www.inkscape.org/namespaces/inkscape"
   xmlns:sodipodi="http://sodipodi.sourceforge.net/DTD/sodipodi-0.dtd"
   xmlns="http://www.w3.org/2000/svg"
   xmlns:svg="http://www.w3.org/2000/svg"
   xmlns:rdf="http://www.w3.org/1999/02/22-rdf-syntax-ns#"
   xmlns:cc="http://creativecommons.org/ns#"
   xmlns:dc="http://purl.org/dc/elements/1.1/">
  <defs
     id="defs4876" />
  <sodipodi:namedview
     id="base"
     pagecolor="#ffffff"
     bordercolor="#666666"
     borderopacity="1.0"
     inkscape:pageopacity="0.0"
     inkscape:pageshadow="2"
     inkscape:zoom="7.0249991"
     inkscape:cx="-31.459079"
     inkscape:cy="44.412817"
     inkscape:document-units="px"
     inkscape:current-layer="layer1"
     showgrid="true"
     showborder="true"
     fit-margin-top="0"
     fit-margin-left="0"
     fit-margin-right="0"
     fit-margin-bottom="0"
     inkscape:snap-bbox="true"
     inkscape:bbox-paths="true"
     inkscape:bbox-nodes="true"
     inkscape:snap-bbox-edge-midpoints="true"
     inkscape:snap-bbox-midpoints="true"
     inkscape:object-paths="true"
     inkscape:snap-intersection-paths="true"
     inkscape:object-nodes="true"
     inkscape:snap-smooth-nodes="true"
     inkscape:snap-midpoints="true"
     inkscape:snap-object-midpoints="true"
     inkscape:snap-center="true"
     showguides="true"
     inkscape:guide-bbox="true"
     inkscape:snap-global="true"
     inkscape:showpageshadow="2"
     inkscape:pagecheckerboard="0"
     inkscape:deskcolor="#d1d1d1"
     inkscape:window-width="1920"
     inkscape:window-height="1039"
     inkscape:window-x="0"
     inkscape:window-y="0"
     inkscape:window-maximized="1">
    <inkscape:grid
       type="xygrid"
       id="grid5451"
       empspacing="8" />
    <sodipodi:guide
       orientation="1,0"
       position="8,-8.0000001"
       id="guide4063"
       inkscape:locked="false" />
    <sodipodi:guide
       orientation="1,0"
       position="4,-8.0000001"
       id="guide4065"
       inkscape:locked="false" />
    <sodipodi:guide
       orientation="0,1"
       position="-8,88.000001"
       id="guide4067"
       inkscape:locked="false" />
    <sodipodi:guide
       orientation="0,1"
       position="-8,92.000001"
       id="guide4069"
       inkscape:locked="false" />
    <sodipodi:guide
       orientation="0,1"
       position="104,4"
       id="guide4071"
       inkscape:locked="false" />
    <sodipodi:guide
       orientation="0,1"
       position="-5,8.0000001"
       id="guide4073"
       inkscape:locked="false" />
    <sodipodi:guide
       orientation="1,0"
       position="88,-8.0000001"
       id="guide4077"
       inkscape:locked="false" />
    <sodipodi:guide
       orientation="0,1"
       position="-8,84.000001"
       id="guide4074"
       inkscape:locked="false" />
    <sodipodi:guide
       orientation="1,0"
       position="12,-8.0000001"
       id="guide4076"
       inkscape:locked="false" />
    <sodipodi:guide
       orientation="1,0"
       position="84,-8.0000001"
       id="guide4080"
       inkscape:locked="false" />
    <sodipodi:guide
       position="48,-8.0000001"
       orientation="1,0"
       id="guide4170"
       inkscape:locked="false" />
    <sodipodi:guide
       position="-8,48"
       orientation="0,1"
       id="guide4172"
       inkscape:locked="false" />
    <sodipodi:guide
       position="92,-8.0000001"
       orientation="1,0"
       id="guide4760"
       inkscape:locked="false" />
  </sodipodi:namedview>
  <metadata
     id="metadata4879">
    <rdf:RDF>
      <cc:Work
         rdf:about="">
        <dc:format>image/svg+xml</dc:format>
        <dc:type
           rdf:resource="http://purl.org/dc/dcmitype/StillImage" />
      </cc:Work>
    </rdf:RDF>
  </metadata>
  <g
     inkscape:label="Layer 1"
     inkscape:groupmode="layer"
     id="layer1"
     transform="translate(67.857146,-78.50504)">
    <rect
       transform="rotate(90)"
       y="-28.142857"
       x="78.505051"
       height="96"
       width="96"
       id="rect4782"
       style="color:#000000;display:inline;overflow:visible;visibility:visible;fill:none;stroke:none;stroke-width:4;marker:none;enable-background:accumulate" />
    <path
       style="color:#000000;display:inline;overflow:visible;visibility:visible;opacity:1;fill:#808080;fill-opacity:1;fill-rule:nonzero;stroke:none;stroke-width:8;marker:none;enable-background:accumulate;stroke-dasharray:none"
       d="M 48 2 C 48 2 38.181609 18.429688 12 18.429688 C 12 74.286805 48 94 48 94 C 48 94 84 74.286806 84 18.429688 C 57.818391 18.429688 48 2 48 2 z M 48 8.2949219 L 50.373047 10.464844 C 51.488645 11.485047 52.615384 12.464614 53.925781 13.404297 C 58.964449 17.017674 66.640726 20.526016 76.746094 21.761719 L 80.025391 22.160156 L 79.833984 25.460938 C 78.48674 48.604906 70.685202 64.488993 62.902344 74.789062 C 57.583185 81.828552 53.17314 85.559789 50.070312 87.818359 L 48 89.324219 L 45.931641 87.818359 L 45.929688 87.818359 C 42.826861 85.559789 38.416815 81.828553 33.097656 74.789062 C 25.314751 64.488992 17.513261 48.604906 16.166016 25.460938 L 15.974609 22.160156 L 19.253906 21.761719 C 29.359274 20.526016 37.035551 17.017674 42.074219 13.404297 C 43.384616 12.464614 44.511355 11.485047 45.626953 10.464844 L 46.314453 9.8359375 L 48 8.2949219 z "
       transform="translate(-67.857146,78.50504)"
       id="path4210" />
    <path
       style="opacity:1;fill:#808080;stroke:none;stroke-width:1.13879;stroke-dasharray:none;stroke-opacity:1;paint-order:fill markers stroke"
       d="M 46.313691,87.989737 C 40.237336,83.504727 35.111864,77.946441 30.282662,70.604991 22.73849,59.13619 18.087491,45.304235 16.593321,29.893242 c -0.255479,-2.635029 -0.570565,-7.529279 -0.489917,-7.609927 0.03147,-0.03147 1.337443,-0.223335 2.902172,-0.426376 7.882138,-1.022795 14.540182,-3.161398 20.106334,-6.458271 2.732688,-1.618592 4.492234,-2.960767 7.559885,-5.7666497 l 1.33371,-1.2199027 1.942349,1.7658594 c 2.382157,2.165705 3.18363,2.79942 5.309762,4.198361 5.986235,3.938793 13.272695,6.410179 22.251094,7.547019 1.330853,0.168512 2.427582,0.31715 2.437176,0.330307 0.03734,0.05121 -0.371073,5.94867 -0.5192,7.497231 -2.001899,20.928419 -9.886128,38.986363 -22.76926,52.150438 -2.392771,2.444952 -4.402003,4.199834 -6.998538,6.112591 l -1.657846,1.221262 z"
       id="path1025"
       transform="translate(-67.857146,78.50504)" />
  </g>
</svg>
